<?xml version="1.0" encoding="UTF-8"?>
<svg id="Layer_1" data-name="Layer 1" xmlns="http://www.w3.org/2000/svg" viewBox="0 0 710.52 710.28">
  <defs>
    <style>
      .cls-1 {
        fill: #fff;
      }
    </style>
  </defs>
  <path class="cls-1" d="M606.87,110.09l-65.94,72.13c-.47,2.38,13.78,18.34,16.42,22.09,57.85,82.33,59.79,204.26,5.45,288.86-77.18,120.18-247.04,141.54-358.63,56.31l-44.05,46.72h-51.22l67.34-73.42c-18.88-22.91-34.84-48.36-45.32-76.28-26.37-70.27-21.66-154.03,14.91-219.77,73.17-131.53,249-159.02,366.83-70.11l42.98-46.53h51.22ZM352.43,159.73c-101.83,2.58-168.59,80.39-173.55,179.09-2.44,48.6,8.16,100.49,38.31,139.38L473.28,200.18c-32.59-29.27-77.46-41.55-120.85-40.45ZM484.52,495.92c25.85-26.22,43.03-62.97,49.32-99.12,9.79-56.24,1.32-122.62-33.97-168.75L243.69,507.31c68.09,55.65,178.77,51.58,240.83-11.39Z"/>
  <path class="cls-1" d="M112.78,465.27L0,353.14l111.49-110.83c-27.42,72.47-27.54,150.92,1.3,222.96Z"/>
  <path class="cls-1" d="M461.63,605.28l-103.11,105-106.97-106.3c67.76,26.27,142.04,27.49,210.08,1.3Z"/>
  <path class="cls-1" d="M606.88,460.08c15.33-46.37,22.23-94.21,16.68-143.07l-13.46-61.73,100.41,101.57-103.64,103.23Z"/>
  <path class="cls-1" d="M451.26,97.11c-65.58-22.08-135.42-20.28-199.7,5.19L353.53,0l97.73,97.11Z"/>
</svg>